<?xml version="1.0" encoding="UTF-8"?>
<svg xmlns="http://www.w3.org/2000/svg" xmlns:xlink="http://www.w3.org/1999/xlink" viewBox="0 0 32 32" width="32px" height="32px">
<g id="surface126961210">
<path style=" stroke:none;fill-rule:nonzero;fill:rgb(92.54902%,94.117647%,94.509804%);fill-opacity:1;" d="M 15 2 C 7.832031 2 2 7.832031 2 15 C 2 22.167969 7.832031 28 15 28 C 22.167969 28 28 22.167969 28 15 C 28 7.832031 22.167969 2 15 2 Z M 15 4 C 21.085938 4 26 8.914062 26 15 C 26 21.085938 21.085938 26 15 26 C 8.914062 26 4 21.085938 4 15 C 4 8.914062 8.914062 4 15 4 Z M 12 10 L 12 20 L 14 20 L 14 16 L 16 16 L 16 14 L 14 14 L 14 12 L 18 12 L 18 10 Z M 12 10 "/>
</g>
</svg>
